<svg width="24" height="24" viewBox="0 0 24 24" fill="none" xmlns="http://www.w3.org/2000/svg">
<rect width="24" height="24" rx="12" fill="#16C45B"/>
<rect x="0.5" y="0.5" width="23" height="23" rx="11.5" stroke="#8CC63F" stroke-opacity="0.5"/>
<path d="M18.265 8.76505L10.265 16.765C10.1947 16.8353 10.0994 16.8747 10 16.8747C9.90064 16.8747 9.80533 16.8353 9.73501 16.765L6.23501 13.265C6.16877 13.194 6.13271 13.0999 6.13443 13.0028C6.13614 12.9056 6.1755 12.8129 6.2442 12.7442C6.31291 12.6755 6.4056 12.6362 6.50275 12.6345C6.5999 12.6327 6.69393 12.6688 6.76501 12.735L10 15.9694L17.735 8.23505C17.8061 8.16881 17.9001 8.13274 17.9973 8.13446C18.0944 8.13617 18.1871 8.17553 18.2558 8.24423C18.3245 8.31294 18.3639 8.40563 18.3656 8.50278C18.3673 8.59994 18.3313 8.69396 18.265 8.76505Z" fill="white"/>
</svg>
